<?xml version="1.0" encoding="UTF-8" standalone="no"?>
<!DOCTYPE svg PUBLIC "-//W3C//DTD SVG 1.1//EN"
 "http://www.w3.org/Graphics/SVG/1.1/DTD/svg11.dtd">
<!-- Generated by graphviz version 2.40.1 (20161225.0304)
 -->
<!-- Title: G Pages: 1 -->
<svg width="514pt" height="204pt"
 viewBox="0.00 0.00 513.75 204.43" xmlns="http://www.w3.org/2000/svg" xmlns:xlink="http://www.w3.org/1999/xlink">
<g id="graph0" class="graph" transform="scale(1 1) rotate(0) translate(4 200.4282)">
<title>G</title>
<polygon fill="#ffffff" stroke="transparent" points="-4,4 -4,-200.4282 509.7493,-200.4282 509.7493,4 -4,4"/>
<!-- A -->
<g id="node1" class="node">
<title>A</title>
<ellipse fill="none" stroke="#000000" cx="107.2141" cy="-18" rx="27" ry="18"/>
<text text-anchor="middle" x="107.2141" y="-13.8" font-family="Times,serif" font-size="14.00" fill="#000000">A</text>
</g>
<!-- B -->
<g id="node2" class="node">
<title>B</title>
<ellipse fill="none" stroke="#000000" cx="27" cy="-98.2141" rx="27" ry="18"/>
<text text-anchor="middle" x="27" y="-94.0141" font-family="Times,serif" font-size="14.00" fill="#000000">B</text>
</g>
<!-- A&#45;&#45;B -->
<g id="edge1" class="edge">
<title>A&#45;&#45;B</title>
<path fill="none" stroke="#000000" d="M92.1264,-33.0877C77.7854,-47.4287 56.3386,-68.8755 42.02,-83.1941"/>
</g>
<!-- D -->
<g id="node3" class="node">
<title>D</title>
<ellipse fill="none" stroke="#000000" cx="187.4282" cy="-98.2141" rx="27" ry="18"/>
<text text-anchor="middle" x="187.4282" y="-94.0141" font-family="Times,serif" font-size="14.00" fill="#000000">D</text>
</g>
<!-- A&#45;&#45;D -->
<g id="edge2" class="edge">
<title>A&#45;&#45;D</title>
<path fill="none" stroke="#000000" d="M122.3017,-33.0877C136.6428,-47.4287 158.0896,-68.8755 172.4082,-83.1941"/>
</g>
<!-- E -->
<g id="node4" class="node">
<title>E</title>
<ellipse fill="none" stroke="#000000" cx="289.5085" cy="-46.1135" rx="27" ry="18"/>
<text text-anchor="middle" x="289.5085" y="-41.9135" font-family="Times,serif" font-size="14.00" fill="#000000">E</text>
</g>
<!-- A&#45;&#45;E -->
<g id="edge3" class="edge">
<title>A&#45;&#45;E</title>
<path fill="none" stroke="#000000" d="M133.7213,-22.0879C168.283,-27.4181 228.3918,-36.6881 262.9693,-42.0206"/>
</g>
<!-- C -->
<g id="node5" class="node">
<title>C</title>
<ellipse fill="none" stroke="#000000" cx="107.2141" cy="-178.4282" rx="27" ry="18"/>
<text text-anchor="middle" x="107.2141" y="-174.2282" font-family="Times,serif" font-size="14.00" fill="#000000">C</text>
</g>
<!-- B&#45;&#45;C -->
<g id="edge4" class="edge">
<title>B&#45;&#45;C</title>
<path fill="none" stroke="#000000" d="M42.0877,-113.3017C56.4287,-127.6428 77.8755,-149.0896 92.1941,-163.4082"/>
</g>
<!-- D&#45;&#45;E -->
<g id="edge6" class="edge">
<title>D&#45;&#45;E</title>
<path fill="none" stroke="#000000" d="M209.0768,-87.1649C226.4002,-78.3233 250.5759,-65.9842 267.8911,-57.1468"/>
</g>
<!-- F -->
<g id="node6" class="node">
<title>F</title>
<ellipse fill="none" stroke="#000000" cx="289.5085" cy="-150.3147" rx="27" ry="18"/>
<text text-anchor="middle" x="289.5085" y="-146.1147" font-family="Times,serif" font-size="14.00" fill="#000000">F</text>
</g>
<!-- E&#45;&#45;F -->
<g id="edge7" class="edge">
<title>E&#45;&#45;F</title>
<path fill="none" stroke="#000000" d="M289.5085,-64.264C289.5085,-83.2728 289.5085,-112.9609 289.5085,-132.0226"/>
</g>
<!-- G -->
<g id="node7" class="node">
<title>G</title>
<ellipse fill="none" stroke="#000000" cx="379.7493" cy="-98.2141" rx="27" ry="18"/>
<text text-anchor="middle" x="379.7493" y="-94.0141" font-family="Times,serif" font-size="14.00" fill="#000000">G</text>
</g>
<!-- E&#45;&#45;G -->
<g id="edge8" class="edge">
<title>E&#45;&#45;G</title>
<path fill="none" stroke="#000000" d="M309.9855,-57.9359C324.65,-66.4025 344.3242,-77.7614 359.0409,-86.2581"/>
</g>
<!-- C&#45;&#45;D -->
<g id="edge5" class="edge">
<title>C&#45;&#45;D</title>
<path fill="none" stroke="#000000" d="M122.3017,-163.3405C136.6428,-148.9995 158.0896,-127.5527 172.4082,-113.2341"/>
</g>
<!-- F&#45;&#45;G -->
<g id="edge9" class="edge">
<title>F&#45;&#45;G</title>
<path fill="none" stroke="#000000" d="M309.9855,-138.4922C324.65,-130.0257 344.3242,-118.6668 359.0409,-110.1701"/>
</g>
<!-- H -->
<g id="node8" class="node">
<title>H</title>
<ellipse fill="none" stroke="#000000" cx="478.7493" cy="-98.2141" rx="27" ry="18"/>
<text text-anchor="middle" x="478.7493" y="-94.0141" font-family="Times,serif" font-size="14.00" fill="#000000">H</text>
</g>
<!-- G&#45;&#45;H -->
<g id="edge10" class="edge">
<title>G&#45;&#45;H</title>
<path fill="none" stroke="#000000" d="M406.8015,-98.2141C420.7705,-98.2141 437.7655,-98.2141 451.7298,-98.2141"/>
</g>
</g>
</svg>
